# xmcd
#
# Track frame offsets:
#	150
#	14606
#	28518
#	39693
#	58329
#	72711
#	90682
#	111189
#	134610
#
# Disc length: 2000 seconds
# Revision: 0
# Processed by: cddbd v1.5.2PL0 Copyright (c) Steve Scherf et al.
# Submitted via: dBpowerAMP V12.0
#
DISCID=8807ce09
DTITLE=Snarky Dave and The Prickly Blues Men - Big Snark
DYEAR=2013
DGENRE=Blues
TTITLE0=Caucasian Blues
TTITLE1=Bitchin
TTITLE2=Big Girl
TTITLE3=Mother and I
TTITLE4=Dog Gone Fool
TTITLE5=Pick it up
TTITLE6=Mike Sully's Boogie
TTITLE7=Makes no Sense
TTITLE8=Caucoustic Blues
EXTD=
EXTT0=
EXTT1=
EXTT2=
EXTT3=
EXTT4=
EXTT5=
EXTT6=
EXTT7=
EXTT8=
PLAYORDER=
